<?xml version="1.0" encoding="UTF-8" standalone="no"?>
<!DOCTYPE svg PUBLIC "-//W3C//DTD SVG 1.1//EN"
 "http://www.w3.org/Graphics/SVG/1.1/DTD/svg11.dtd">
<!-- Generated by graphviz version 2.26.3 (20100126.1600)
 -->
<!-- Title: G Pages: 1 -->
<svg width="1342pt" height="1460pt"
 viewBox="0.00 0.00 1342.00 1460.00" xmlns="http://www.w3.org/2000/svg" xmlns:xlink="http://www.w3.org/1999/xlink">
<g id="graph1" class="graph" transform="scale(1 1) rotate(0) translate(4 1456)">
<title>G</title>
<polygon fill="white" stroke="white" points="-4,5 -4,-1456 1339,-1456 1339,5 -4,5"/>
<g id="graph2" class="cluster"><title>cluster_FIT</title>
<polyline fill="none" stroke="gray" points="732,-260 1314,-260 "/>
<path fill="none" stroke="gray" d="M1314,-260C1320,-260 1326,-266 1326,-272"/>
<polyline fill="none" stroke="gray" points="1326,-272 1326,-1244 "/>
<path fill="none" stroke="gray" d="M1326,-1244C1326,-1250 1320,-1256 1314,-1256"/>
<polyline fill="none" stroke="gray" points="1314,-1256 732,-1256 "/>
<path fill="none" stroke="gray" d="M732,-1256C726,-1256 720,-1250 720,-1244"/>
<polyline fill="none" stroke="gray" points="720,-1244 720,-272 "/>
<path fill="none" stroke="gray" d="M720,-272C720,-266 726,-260 732,-260"/>
<text text-anchor="middle" x="1023" y="-1242.1" font-family="Times,serif" font-size="11.00" fill="gray">FIT</text>
</g>
<g id="graph3" class="cluster"><title>cluster_FIT\NetopeerBundle</title>
<polyline fill="none" stroke="gray" points="740,-268 1306,-268 "/>
<path fill="none" stroke="gray" d="M1306,-268C1312,-268 1318,-274 1318,-280"/>
<polyline fill="none" stroke="gray" points="1318,-280 1318,-1216 "/>
<path fill="none" stroke="gray" d="M1318,-1216C1318,-1222 1312,-1228 1306,-1228"/>
<polyline fill="none" stroke="gray" points="1306,-1228 740,-1228 "/>
<path fill="none" stroke="gray" d="M740,-1228C734,-1228 728,-1222 728,-1216"/>
<polyline fill="none" stroke="gray" points="728,-1216 728,-280 "/>
<path fill="none" stroke="gray" d="M728,-280C728,-274 734,-268 740,-268"/>
<text text-anchor="middle" x="1023" y="-1214.1" font-family="Times,serif" font-size="11.00" fill="gray">NetopeerBundle</text>
</g>
<g id="graph4" class="cluster"><title>cluster_FIT\NetopeerBundle\Controller</title>
<polyline fill="none" stroke="gray" points="748,-966 1288,-966 "/>
<path fill="none" stroke="gray" d="M1288,-966C1294,-966 1300,-972 1300,-978"/>
<polyline fill="none" stroke="gray" points="1300,-978 1300,-1188 "/>
<path fill="none" stroke="gray" d="M1300,-1188C1300,-1194 1294,-1200 1288,-1200"/>
<polyline fill="none" stroke="gray" points="1288,-1200 748,-1200 "/>
<path fill="none" stroke="gray" d="M748,-1200C742,-1200 736,-1194 736,-1188"/>
<polyline fill="none" stroke="gray" points="736,-1188 736,-978 "/>
<path fill="none" stroke="gray" d="M736,-978C736,-972 742,-966 748,-966"/>
<text text-anchor="middle" x="1018" y="-1186.1" font-family="Times,serif" font-size="11.00" fill="gray">Controller</text>
</g>
<g id="graph5" class="cluster"><title>cluster_FIT\NetopeerBundle\DependencyInjection</title>
<polyline fill="none" stroke="gray" points="1151,-832 1295,-832 "/>
<path fill="none" stroke="gray" d="M1295,-832C1301,-832 1307,-838 1307,-844"/>
<polyline fill="none" stroke="gray" points="1307,-844 1307,-946 "/>
<path fill="none" stroke="gray" d="M1307,-946C1307,-952 1301,-958 1295,-958"/>
<polyline fill="none" stroke="gray" points="1295,-958 1151,-958 "/>
<path fill="none" stroke="gray" d="M1151,-958C1145,-958 1139,-952 1139,-946"/>
<polyline fill="none" stroke="gray" points="1139,-946 1139,-844 "/>
<path fill="none" stroke="gray" d="M1139,-844C1139,-838 1145,-832 1151,-832"/>
<text text-anchor="middle" x="1223" y="-944.1" font-family="Times,serif" font-size="11.00" fill="gray">DependencyInjection</text>
</g>
<g id="graph6" class="cluster"><title>cluster_FIT\NetopeerBundle\Entity</title>
<polyline fill="none" stroke="gray" points="1162,-590 1284,-590 "/>
<path fill="none" stroke="gray" d="M1284,-590C1290,-590 1296,-596 1296,-602"/>
<polyline fill="none" stroke="gray" points="1296,-602 1296,-812 "/>
<path fill="none" stroke="gray" d="M1296,-812C1296,-818 1290,-824 1284,-824"/>
<polyline fill="none" stroke="gray" points="1284,-824 1162,-824 "/>
<path fill="none" stroke="gray" d="M1162,-824C1156,-824 1150,-818 1150,-812"/>
<polyline fill="none" stroke="gray" points="1150,-812 1150,-602 "/>
<path fill="none" stroke="gray" d="M1150,-602C1150,-596 1156,-590 1162,-590"/>
<text text-anchor="middle" x="1223" y="-810.1" font-family="Times,serif" font-size="11.00" fill="gray">Entity</text>
</g>
<g id="graph7" class="cluster"><title>cluster_FIT\NetopeerBundle\Models</title>
<polyline fill="none" stroke="gray" points="1172,-402 1274,-402 "/>
<path fill="none" stroke="gray" d="M1274,-402C1280,-402 1286,-408 1286,-414"/>
<polyline fill="none" stroke="gray" points="1286,-414 1286,-570 "/>
<path fill="none" stroke="gray" d="M1286,-570C1286,-576 1280,-582 1274,-582"/>
<polyline fill="none" stroke="gray" points="1274,-582 1172,-582 "/>
<path fill="none" stroke="gray" d="M1172,-582C1166,-582 1160,-576 1160,-570"/>
<polyline fill="none" stroke="gray" points="1160,-570 1160,-414 "/>
<path fill="none" stroke="gray" d="M1160,-414C1160,-408 1166,-402 1172,-402"/>
<text text-anchor="middle" x="1223" y="-568.1" font-family="Times,serif" font-size="11.00" fill="gray">Models</text>
</g>
<g id="graph8" class="cluster"><title>cluster_FIT\NetopeerBundle\Twig</title>
<polyline fill="none" stroke="gray" points="1148,-322 1298,-322 "/>
<path fill="none" stroke="gray" d="M1298,-322C1304,-322 1310,-328 1310,-334"/>
<polyline fill="none" stroke="gray" points="1310,-334 1310,-382 "/>
<path fill="none" stroke="gray" d="M1310,-382C1310,-388 1304,-394 1298,-394"/>
<polyline fill="none" stroke="gray" points="1298,-394 1148,-394 "/>
<path fill="none" stroke="gray" d="M1148,-394C1142,-394 1136,-388 1136,-382"/>
<polyline fill="none" stroke="gray" points="1136,-382 1136,-334 "/>
<path fill="none" stroke="gray" d="M1136,-334C1136,-328 1142,-322 1148,-322"/>
<text text-anchor="middle" x="1223" y="-380.1" font-family="Times,serif" font-size="11.00" fill="gray">Twig</text>
</g>
<g id="graph14" class="cluster"><title>cluster_global</title>
<polyline fill="none" stroke="gray" points="745,-1264 1308,-1264 "/>
<path fill="none" stroke="gray" d="M1308,-1264C1314,-1264 1320,-1270 1320,-1276"/>
<polyline fill="none" stroke="gray" points="1320,-1276 1320,-1432 "/>
<path fill="none" stroke="gray" d="M1320,-1432C1320,-1438 1314,-1444 1308,-1444"/>
<polyline fill="none" stroke="gray" points="1308,-1444 745,-1444 "/>
<path fill="none" stroke="gray" d="M745,-1444C739,-1444 733,-1438 733,-1432"/>
<polyline fill="none" stroke="gray" points="733,-1432 733,-1276 "/>
<path fill="none" stroke="gray" d="M733,-1276C733,-1270 739,-1264 745,-1264"/>
<text text-anchor="middle" x="1026.5" y="-1430.1" font-family="Times,serif" font-size="11.00" fill="gray">global</text>
</g>
<!-- \\FIT\\NetopeerBundle\\Controller\\DefaultController -->
<g id="node4" class="node"><title>\\FIT\\NetopeerBundle\\Controller\\DefaultController</title>
<a xlink:href="Controller.DefaultController.html" xlink:title="DefaultController" target="_parent">
<polygon fill="none" stroke="black" points="1288,-1172 1158,-1172 1158,-1136 1288,-1136 1288,-1172"/>
<text text-anchor="middle" x="1223" y="-1150.6" font-family="Courier,monospace" font-size="11.00">DefaultController</text>
</a>
</g>
<!-- \\FIT\\NetopeerBundle\\Controller\\BaseController -->
<g id="node8" class="node"><title>\\FIT\\NetopeerBundle\\Controller\\BaseController</title>
<a xlink:href="Controller.BaseController.html" xlink:title="BaseController" target="_parent">
<polygon fill="none" stroke="black" points="854,-1091 744,-1091 744,-1055 854,-1055 854,-1091"/>
<text text-anchor="middle" x="799" y="-1069.6" font-family="Courier,monospace" font-size="11.00">BaseController</text>
</a>
</g>
<!-- \\FIT\\NetopeerBundle\\Controller\\DefaultController&#45;&gt;\\FIT\\NetopeerBundle\\Controller\\BaseController -->
<g id="edge29" class="edge"><title>\\FIT\\NetopeerBundle\\Controller\\DefaultController&#45;&gt;\\FIT\\NetopeerBundle\\Controller\\BaseController</title>
<path fill="none" stroke="black" d="M1157.22,-1141.43C1077.36,-1126.18 943.534,-1100.61 864.022,-1085.42"/>
<polygon fill="none" stroke="black" points="864.606,-1081.97 854.127,-1083.53 863.292,-1088.85 864.606,-1081.97"/>
</g>
<!-- \\FIT\\NetopeerBundle\\Controller\\GenerateController -->
<g id="node5" class="node"><title>\\FIT\\NetopeerBundle\\Controller\\GenerateController</title>
<a xlink:href="Controller.GenerateController.html" xlink:title="GenerateController" target="_parent">
<polygon fill="none" stroke="black" points="1292,-1118 1154,-1118 1154,-1082 1292,-1082 1292,-1118"/>
<text text-anchor="middle" x="1223" y="-1096.6" font-family="Courier,monospace" font-size="11.00">GenerateController</text>
</a>
</g>
<!-- \\FIT\\NetopeerBundle\\Controller\\GenerateController&#45;&gt;\\FIT\\NetopeerBundle\\Controller\\BaseController -->
<g id="edge31" class="edge"><title>\\FIT\\NetopeerBundle\\Controller\\GenerateController&#45;&gt;\\FIT\\NetopeerBundle\\Controller\\BaseController</title>
<path fill="none" stroke="black" d="M1153.93,-1095.6C1073.87,-1090.5 942.904,-1082.16 864.425,-1077.17"/>
<polygon fill="none" stroke="black" points="864.384,-1073.66 854.182,-1076.51 863.939,-1080.64 864.384,-1073.66"/>
</g>
<!-- \\FIT\\NetopeerBundle\\Controller\\SecurityController -->
<g id="node6" class="node"><title>\\FIT\\NetopeerBundle\\Controller\\SecurityController</title>
<a xlink:href="Controller.SecurityController.html" xlink:title="SecurityController" target="_parent">
<polygon fill="none" stroke="black" points="1291,-1064 1155,-1064 1155,-1028 1291,-1028 1291,-1064"/>
<text text-anchor="middle" x="1223" y="-1042.6" font-family="Courier,monospace" font-size="11.00">SecurityController</text>
</a>
</g>
<!-- \\FIT\\NetopeerBundle\\Controller\\SecurityController&#45;&gt;\\FIT\\NetopeerBundle\\Controller\\BaseController -->
<g id="edge33" class="edge"><title>\\FIT\\NetopeerBundle\\Controller\\SecurityController&#45;&gt;\\FIT\\NetopeerBundle\\Controller\\BaseController</title>
<path fill="none" stroke="black" d="M1154.41,-1050.37C1074.44,-1055.46 943.231,-1063.82 864.58,-1068.82"/>
<polygon fill="none" stroke="black" points="864.071,-1065.35 854.314,-1069.48 864.516,-1072.33 864.071,-1065.35"/>
</g>
<!-- \\FIT\\NetopeerBundle\\Controller\\AjaxController -->
<g id="node7" class="node"><title>\\FIT\\NetopeerBundle\\Controller\\AjaxController</title>
<a xlink:href="Controller.AjaxController.html" xlink:title="AjaxController" target="_parent">
<polygon fill="none" stroke="black" points="1278,-1010 1168,-1010 1168,-974 1278,-974 1278,-1010"/>
<text text-anchor="middle" x="1223" y="-988.6" font-family="Courier,monospace" font-size="11.00">AjaxController</text>
</a>
</g>
<!-- \\FIT\\NetopeerBundle\\Controller\\AjaxController&#45;&gt;\\FIT\\NetopeerBundle\\Controller\\BaseController -->
<g id="edge35" class="edge"><title>\\FIT\\NetopeerBundle\\Controller\\AjaxController&#45;&gt;\\FIT\\NetopeerBundle\\Controller\\BaseController</title>
<path fill="none" stroke="black" d="M1167.1,-1007.8C1156.05,-1011.25 1144.59,-1015.06 1134,-1019 1101.18,-1031.22 1095.92,-1042.31 1062,-1051 996.013,-1067.91 917.97,-1072.6 864.128,-1073.56"/>
<polygon fill="none" stroke="black" points="863.98,-1070.06 854.03,-1073.7 864.078,-1077.06 863.98,-1070.06"/>
</g>
<!-- \\Symfony\\Bundle\\FrameworkBundle\\Controller\\Controller -->
<g id="node50" class="node"><title>\\Symfony\\Bundle\\FrameworkBundle\\Controller\\Controller</title>
<ellipse fill="none" stroke="black" cx="232" cy="-1073" rx="230.88" ry="18"/>
<text text-anchor="middle" x="232" y="-1067.9" font-family="Times,serif" font-size="14.00" fill="gray">\Symfony\Bundle\FrameworkBundle\Controller\Controller</text>
</g>
<!-- \\FIT\\NetopeerBundle\\Controller\\BaseController&#45;&gt;\\Symfony\\Bundle\\FrameworkBundle\\Controller\\Controller -->
<g id="edge37" class="edge"><title>\\FIT\\NetopeerBundle\\Controller\\BaseController&#45;&gt;\\Symfony\\Bundle\\FrameworkBundle\\Controller\\Controller</title>
<path fill="none" stroke="black" d="M743.86,-1073C680.97,-1073 573.877,-1073 473.854,-1073"/>
<polygon fill="none" stroke="black" points="473.575,-1069.5 463.575,-1073 473.575,-1076.5 473.575,-1069.5"/>
</g>
<!-- \\FIT\\NetopeerBundle\\DependencyInjection\\FITNetopeerExtension -->
<g id="node10" class="node"><title>\\FIT\\NetopeerBundle\\DependencyInjection\\FITNetopeerExtension</title>
<a xlink:href="DependencyInjection.FITNetopeerExtension.html" xlink:title="FITNetopeerExtension" target="_parent">
<polygon fill="none" stroke="black" points="1299,-930 1147,-930 1147,-894 1299,-894 1299,-930"/>
<text text-anchor="middle" x="1223" y="-908.6" font-family="Courier,monospace" font-size="11.00">FITNetopeerExtension</text>
</a>
</g>
<!-- \\Symfony\\Component\\HttpKernel\\DependencyInjection\\Extension -->
<g id="node37" class="node"><title>\\Symfony\\Component\\HttpKernel\\DependencyInjection\\Extension</title>
<ellipse fill="none" stroke="black" cx="799" cy="-234" rx="258.177" ry="18"/>
<text text-anchor="middle" x="799" y="-228.9" font-family="Times,serif" font-size="14.00" fill="gray">\Symfony\Component\HttpKernel\DependencyInjection\Extension</text>
</g>
<!-- \\FIT\\NetopeerBundle\\DependencyInjection\\FITNetopeerExtension&#45;&gt;\\Symfony\\Component\\HttpKernel\\DependencyInjection\\Extension -->
<g id="edge17" class="edge"><title>\\FIT\\NetopeerBundle\\DependencyInjection\\FITNetopeerExtension&#45;&gt;\\Symfony\\Component\\HttpKernel\\DependencyInjection\\Extension</title>
<path fill="none" stroke="black" d="M1147.37,-893.998C1142.61,-891.394 1138.09,-888.412 1134,-885 922.073,-708.285 828.673,-363.136 805.177,-262.299"/>
<polygon fill="none" stroke="black" points="808.525,-261.238 802.885,-252.269 801.701,-262.798 808.525,-261.238"/>
</g>
<!-- \\FIT\\NetopeerBundle\\DependencyInjection\\Configuration -->
<g id="node11" class="node"><title>\\FIT\\NetopeerBundle\\DependencyInjection\\Configuration</title>
<a xlink:href="DependencyInjection.Configuration.html" xlink:title="Configuration" target="_parent">
<polygon fill="none" stroke="black" points="1275,-876 1171,-876 1171,-840 1275,-840 1275,-876"/>
<text text-anchor="middle" x="1223" y="-854.6" font-family="Courier,monospace" font-size="11.00">Configuration</text>
</a>
</g>
<!-- \\Symfony\\Component\\Config\\Definition\\ConfigurationInterface -->
<g id="node54" class="node"><title>\\Symfony\\Component\\Config\\Definition\\ConfigurationInterface</title>
<ellipse fill="none" stroke="black" cx="799" cy="-180" rx="262.077" ry="18"/>
<text text-anchor="middle" x="799" y="-174.9" font-family="Times,serif" font-size="14.00" fill="gray">\\Symfony\\Component\\Config\\Definition\\ConfigurationInterface</text>
</g>
<!-- \\FIT\\NetopeerBundle\\DependencyInjection\\Configuration&#45;&gt;\\Symfony\\Component\\Config\\Definition\\ConfigurationInterface -->
<g id="edge41" class="edge"><title>\\FIT\\NetopeerBundle\\DependencyInjection\\Configuration&#45;&gt;\\Symfony\\Component\\Config\\Definition\\ConfigurationInterface</title>
<path fill="none" stroke="black" stroke-dasharray="1,5" d="M1170.91,-850.904C1156.98,-846.5 1143.23,-839.406 1134,-828 959.171,-612.049 1259.75,-402.175 1062,-207 1020.71,-166.251 956.091,-159.156 901.238,-162.417"/>
<polygon fill="none" stroke="black" points="900.842,-158.936 891.117,-163.141 901.341,-165.919 900.842,-158.936"/>
</g>
<!-- \\FIT\\NetopeerBundle\\Entity\\UserSettings -->
<g id="node13" class="node"><title>\\FIT\\NetopeerBundle\\Entity\\UserSettings</title>
<a xlink:href="Entity.UserSettings.html" xlink:title="UserSettings" target="_parent">
<polygon fill="none" stroke="black" points="1270,-796 1176,-796 1176,-760 1270,-760 1270,-796"/>
<text text-anchor="middle" x="1223" y="-774.6" font-family="Courier,monospace" font-size="11.00">UserSettings</text>
</a>
</g>
<!-- \\FIT\\NetopeerBundle\\Entity\\User -->
<g id="node14" class="node"><title>\\FIT\\NetopeerBundle\\Entity\\User</title>
<a xlink:href="Entity.User.html" xlink:title="User" target="_parent">
<polygon fill="none" stroke="black" points="1250,-742 1196,-742 1196,-706 1250,-706 1250,-742"/>
<text text-anchor="middle" x="1223" y="-720.6" font-family="Courier,monospace" font-size="11.00">User</text>
</a>
</g>
<!-- \\Symfony\\Component\\Security\\Core\\User\\UserInterface -->
<g id="node52" class="node"><title>\\Symfony\\Component\\Security\\Core\\User\\UserInterface</title>
<ellipse fill="none" stroke="black" cx="799" cy="-126" rx="234.78" ry="18"/>
<text text-anchor="middle" x="799" y="-120.9" font-family="Times,serif" font-size="14.00" fill="gray">\\Symfony\\Component\\Security\\Core\\User\\UserInterface</text>
</g>
<!-- \\FIT\\NetopeerBundle\\Entity\\User&#45;&gt;\\Symfony\\Component\\Security\\Core\\User\\UserInterface -->
<g id="edge39" class="edge"><title>\\FIT\\NetopeerBundle\\Entity\\User&#45;&gt;\\Symfony\\Component\\Security\\Core\\User\\UserInterface</title>
<path fill="none" stroke="black" stroke-dasharray="1,5" d="M1195.86,-723.24C1175.69,-721.139 1149.15,-714.848 1134,-697 976.154,-511.083 1236.96,-322.91 1062,-153 1020.31,-112.511 955.518,-105.469 900.68,-108.693"/>
<polygon fill="none" stroke="black" points="900.292,-105.211 890.564,-109.408 900.786,-112.194 900.292,-105.211"/>
</g>
<!-- \\FIT\\NetopeerBundle\\Entity\\BaseConnection -->
<g id="node15" class="node"><title>\\FIT\\NetopeerBundle\\Entity\\BaseConnection</title>
<a xlink:href="Entity.BaseConnection.html" xlink:title="BaseConnection" target="_parent">
<polygon fill="none" stroke="black" points="1278,-688 1168,-688 1168,-652 1278,-652 1278,-688"/>
<text text-anchor="middle" x="1223" y="-666.6" font-family="Courier,monospace" font-size="11.00">BaseConnection</text>
</a>
</g>
<!-- \\FIT\\NetopeerBundle\\Entity\\ConnectionSession -->
<g id="node16" class="node"><title>\\FIT\\NetopeerBundle\\Entity\\ConnectionSession</title>
<a xlink:href="Entity.ConnectionSession.html" xlink:title="ConnectionSession" target="_parent">
<polygon fill="none" stroke="black" points="1287,-634 1159,-634 1159,-598 1287,-598 1287,-634"/>
<text text-anchor="middle" x="1223" y="-612.6" font-family="Courier,monospace" font-size="11.00">ConnectionSession</text>
</a>
</g>
<!-- \\FIT\\NetopeerBundle\\Models\\XMLoperations -->
<g id="node18" class="node"><title>\\FIT\\NetopeerBundle\\Models\\XMLoperations</title>
<a xlink:href="Models.XMLoperations.html" xlink:title="XMLoperations" target="_parent">
<polygon fill="none" stroke="black" points="1275,-554 1171,-554 1171,-518 1275,-518 1275,-554"/>
<text text-anchor="middle" x="1223" y="-532.6" font-family="Courier,monospace" font-size="11.00">XMLoperations</text>
</a>
</g>
<!-- \\FIT\\NetopeerBundle\\Models\\AjaxSharedData -->
<g id="node19" class="node"><title>\\FIT\\NetopeerBundle\\Models\\AjaxSharedData</title>
<a xlink:href="Models.AjaxSharedData.html" xlink:title="AjaxSharedData" target="_parent">
<polygon fill="none" stroke="black" points="1278,-500 1168,-500 1168,-464 1278,-464 1278,-500"/>
<text text-anchor="middle" x="1223" y="-478.6" font-family="Courier,monospace" font-size="11.00">AjaxSharedData</text>
</a>
</g>
<!-- \\FIT\\NetopeerBundle\\Models\\Data -->
<g id="node20" class="node"><title>\\FIT\\NetopeerBundle\\Models\\Data</title>
<a xlink:href="Models.Data.html" xlink:title="Data" target="_parent">
<polygon fill="none" stroke="black" points="1250,-446 1196,-446 1196,-410 1250,-410 1250,-446"/>
<text text-anchor="middle" x="1223" y="-424.6" font-family="Courier,monospace" font-size="11.00">Data</text>
</a>
</g>
<!-- \\FIT\\NetopeerBundle\\Twig\\NetopeerTwigExtension -->
<g id="node22" class="node"><title>\\FIT\\NetopeerBundle\\Twig\\NetopeerTwigExtension</title>
<a xlink:href="Twig.NetopeerTwigExtension.html" xlink:title="NetopeerTwigExtension" target="_parent">
<polygon fill="none" stroke="black" points="1302,-366 1144,-366 1144,-330 1302,-330 1302,-366"/>
<text text-anchor="middle" x="1223" y="-344.6" font-family="Courier,monospace" font-size="11.00">NetopeerTwigExtension</text>
</a>
</g>
<!-- \\Twig_Extension -->
<g id="node35" class="node"><title>\\Twig_Extension</title>
<ellipse fill="none" stroke="black" cx="799" cy="-72" rx="74.894" ry="18"/>
<text text-anchor="middle" x="799" y="-66.9" font-family="Times,serif" font-size="14.00" fill="gray">\Twig_Extension</text>
</g>
<!-- \\FIT\\NetopeerBundle\\Twig\\NetopeerTwigExtension&#45;&gt;\\Twig_Extension -->
<g id="edge15" class="edge"><title>\\FIT\\NetopeerBundle\\Twig\\NetopeerTwigExtension&#45;&gt;\\Twig_Extension</title>
<path fill="none" stroke="black" d="M1143.88,-333.487C1140.34,-331.312 1137.02,-328.83 1134,-326 1056.77,-253.622 1144.1,-165.798 1062,-99 1008.43,-55.4137 926.975,-53.7363 868.922,-59.7606"/>
<polygon fill="none" stroke="black" points="868.27,-56.3123 858.73,-60.9216 869.062,-63.2673 868.27,-56.3123"/>
</g>
<!-- \\FIT\\NetopeerBundle\\FITNetopeerBundle -->
<g id="node23" class="node"><title>\\FIT\\NetopeerBundle\\FITNetopeerBundle</title>
<a xlink:href="FITNetopeerBundle.html" xlink:title="FITNetopeerBundle" target="_parent">
<polygon fill="none" stroke="black" points="1289,-312 1157,-312 1157,-276 1289,-276 1289,-312"/>
<text text-anchor="middle" x="1223" y="-290.6" font-family="Courier,monospace" font-size="11.00">FITNetopeerBundle</text>
</a>
</g>
<!-- \\Symfony\\Component\\HttpKernel\\Bundle\\Bundle -->
<g id="node44" class="node"><title>\\Symfony\\Component\\HttpKernel\\Bundle\\Bundle</title>
<ellipse fill="none" stroke="black" cx="799" cy="-18" rx="195.132" ry="18"/>
<text text-anchor="middle" x="799" y="-12.9" font-family="Times,serif" font-size="14.00" fill="gray">\Symfony\Component\HttpKernel\Bundle\Bundle</text>
</g>
<!-- \\FIT\\NetopeerBundle\\FITNetopeerBundle&#45;&gt;\\Symfony\\Component\\HttpKernel\\Bundle\\Bundle -->
<g id="edge27" class="edge"><title>\\FIT\\NetopeerBundle\\FITNetopeerBundle&#45;&gt;\\Symfony\\Component\\HttpKernel\\Bundle\\Bundle</title>
<path fill="none" stroke="black" d="M1217.44,-275.899C1201.81,-228.489 1152.65,-100.524 1062,-45 1044.34,-34.1861 1024.75,-26.3448 1004.44,-20.7642"/>
<polygon fill="none" stroke="black" points="1005.3,-17.371 994.74,-18.28 1003.56,-24.1521 1005.3,-17.371"/>
</g>
<!-- \\LoginTestCase -->
<g id="node30" class="node"><title>\\LoginTestCase</title>
<a xlink:href="Tests.LoginTestCase.html" xlink:title="LoginTestCase" target="_parent">
<polygon fill="none" stroke="black" points="1274,-1416 1172,-1416 1172,-1380 1274,-1380 1274,-1416"/>
<text text-anchor="middle" x="1223" y="-1394.6" font-family="Courier,monospace" font-size="11.00">LoginTestCase</text>
</a>
</g>
<!-- \\DefaultTestCase -->
<g id="node33" class="node"><title>\\DefaultTestCase</title>
<a xlink:href="Tests.DefaultTestCase.html" xlink:title="DefaultTestCase" target="_parent">
<polygon fill="none" stroke="black" points="857,-1362 741,-1362 741,-1326 857,-1326 857,-1362"/>
<text text-anchor="middle" x="799" y="-1340.6" font-family="Courier,monospace" font-size="11.00">DefaultTestCase</text>
</a>
</g>
<!-- \\LoginTestCase&#45;&gt;\\DefaultTestCase -->
<g id="edge19" class="edge"><title>\\LoginTestCase&#45;&gt;\\DefaultTestCase</title>
<path fill="none" stroke="black" d="M1171.43,-1391.43C1095.19,-1381.72 952.284,-1363.52 867.381,-1352.71"/>
<polygon fill="none" stroke="black" points="867.685,-1349.22 857.323,-1351.43 866.801,-1356.16 867.685,-1349.22"/>
</g>
<!-- \\DeviceConnectionTestCase -->
<g id="node31" class="node"><title>\\DeviceConnectionTestCase</title>
<a xlink:href="Tests.DeviceConnectionTestCase.html" xlink:title="DeviceConnectionTestCase" target="_parent">
<polygon fill="none" stroke="black" points="1311,-1362 1135,-1362 1135,-1326 1311,-1326 1311,-1362"/>
<text text-anchor="middle" x="1223" y="-1340.6" font-family="Courier,monospace" font-size="11.00">DeviceConnectionTestCase</text>
</a>
</g>
<!-- \\DeviceConnectionTestCase&#45;&gt;\\DefaultTestCase -->
<g id="edge21" class="edge"><title>\\DeviceConnectionTestCase&#45;&gt;\\DefaultTestCase</title>
<path fill="none" stroke="black" d="M1134.37,-1344C1055.01,-1344 940.261,-1344 867.674,-1344"/>
<polygon fill="none" stroke="black" points="867.28,-1340.5 857.28,-1344 867.28,-1347.5 867.28,-1340.5"/>
</g>
<!-- \\ConfigureDeviceTestCase -->
<g id="node32" class="node"><title>\\ConfigureDeviceTestCase</title>
<a xlink:href="Tests.ConfigureDeviceTestCase.html" xlink:title="ConfigureDeviceTestCase" target="_parent">
<polygon fill="none" stroke="black" points="1308,-1308 1138,-1308 1138,-1272 1308,-1272 1308,-1308"/>
<text text-anchor="middle" x="1223" y="-1286.6" font-family="Courier,monospace" font-size="11.00">ConfigureDeviceTestCase</text>
</a>
</g>
<!-- \\ConfigureDeviceTestCase&#45;&gt;\\DefaultTestCase -->
<g id="edge23" class="edge"><title>\\ConfigureDeviceTestCase&#45;&gt;\\DefaultTestCase</title>
<path fill="none" stroke="black" d="M1137.96,-1300.83C1058.31,-1310.98 940.789,-1325.94 867.134,-1335.32"/>
<polygon fill="none" stroke="black" points="866.518,-1331.87 857.041,-1336.61 867.403,-1338.82 866.518,-1331.87"/>
</g>
<!-- \\PHPUnit_Extensions_SeleniumTestCase -->
<g id="node42" class="node"><title>\\PHPUnit_Extensions_SeleniumTestCase</title>
<ellipse fill="none" stroke="black" cx="232" cy="-1344" rx="165.886" ry="18"/>
<text text-anchor="middle" x="232" y="-1338.9" font-family="Times,serif" font-size="14.00" fill="gray">\PHPUnit_Extensions_SeleniumTestCase</text>
</g>
<!-- \\DefaultTestCase&#45;&gt;\\PHPUnit_Extensions_SeleniumTestCase -->
<g id="edge25" class="edge"><title>\\DefaultTestCase&#45;&gt;\\PHPUnit_Extensions_SeleniumTestCase</title>
<path fill="none" stroke="black" d="M740.986,-1344C663.519,-1344 522.841,-1344 408.984,-1344"/>
<polygon fill="none" stroke="black" points="408.751,-1340.5 398.751,-1344 408.751,-1347.5 408.751,-1340.5"/>
</g>
</g>
</svg>
